<?xml version="1.0" encoding="utf-8"?>
<!-- Generator: Adobe Illustrator 28.1.0, SVG Export Plug-In . SVG Version: 6.00 Build 0)  -->
<svg version="1.1" id="Layer_1" xmlns="http://www.w3.org/2000/svg" xmlns:xlink="http://www.w3.org/1999/xlink" x="0px" y="0px"
	 viewBox="0 0 800 400" style="enable-background:new 0 0 800 400;" xml:space="preserve">
<g>
	<path d="M251.2,90.6c6.9,4.2,16,2.7,21.1-3.9c5.7-7.7,3.2-18.1-4.9-23.1c-12-7.3-25.9-11.5-41-11.5c-43.3,0-78.5,34.9-79,78.1l0,0
		v48.1h-31.6c-8.8,0-15.8,7-15.8,15.8s7,15.8,15.8,15.8h31.6v94.8c0,8.8,7,15.8,15.8,15.8c8.8,0,15.8-7,15.8-15.8V131.9
		c0-26.3,21-48.4,47.3-48.4C235.4,83.6,243.9,86.2,251.2,90.6"/>
	<path d="M273.6,115.2c-43.6,0-79,35.3-79,79s35.3,79,79,79s79-35.3,79-79S317.3,115.2,273.6,115.2 M273.6,241.4
		c-26.2,0-47.4-21.2-47.4-47.4s21.2-47.4,47.4-47.4S321,167.9,321,194S299.8,241.4,273.6,241.4"/>
	<path d="M447.4,115.2c-43.6,0-79,35.3-79,79v63.2c0,8.8,7,15.8,15.8,15.8c8.8,0,15.8-7,15.8-15.8v-63.2c0-26.2,21.2-47.4,47.4-47.4
		s47.4,21.2,47.4,47.4v63.2c0,8.8,7,15.8,15.8,15.8s15.8-7,15.8-15.8v-63.2C526.4,150.6,491,115.2,447.4,115.2"/>
	<path d="M621,115.2c-43.6,0-79,35.3-79,79v63.2c0,8.8,7,15.8,15.8,15.8c8.8,0,15.8-7,15.8-15.8v-63.2c0-26.2,21.2-47.4,47.4-47.4
		c26.2,0,47.4,21.2,47.4,47.4v63.2c0,8.8,7,15.8,15.8,15.8s15.8-7,15.8-15.8v-63.2C700,150.6,664.6,115.2,621,115.2"/>
	<path d="M518.5,288.8c-11,0-19.9,9-19.7,20c0.1,10.6,8.8,19.3,19.5,19.4c4.6,0,8.8-1.4,12.1-3.9v3.8c0,6.7-5.4,12.1-12,12
		c-2.2,0-4.3-0.6-6-1.7c-1.6-1-3.6-0.7-4.8,0.5c-1.7,1.7-1.5,4.8,0.6,6.2c3.1,1.9,6.7,3,10.5,3c10.9,0,19.6-8.8,19.7-19.5l0,0v-19.7
		l0,0v-0.1C538.1,297.7,529.3,288.8,518.5,288.8 M518.5,320.4c-6.5,0-11.8-5.3-11.8-11.8c0-6.5,5.3-11.8,11.8-11.8
		s11.8,5.3,11.8,11.8C530.3,315.1,524.9,320.4,518.5,320.4"/>
	<path d="M572,291.6c-3-1.9-6.5-2.8-10.2-2.8c-10.9,0-19.6,8.8-19.7,19.5l0,0v15.9c0,2.2,1.7,3.9,3.9,3.9c2.2,0,3.9-1.7,3.9-3.9
		v-15.5c0-6.5,5.2-12.1,11.8-12.1c2.3,0,4.4,0.6,6.2,1.7s3.9,0.6,5.3-1C574.6,295.6,574,293,572,291.6"/>
	<path d="M593.4,288.8c-10.9,0-19.7,8.8-19.7,19.7c0,10.9,8.8,19.7,19.7,19.7c10.9,0,19.7-8.8,19.7-19.7
		C613.1,297.7,604.2,288.8,593.4,288.8 M593.4,320.4c-6.5,0-11.8-5.3-11.8-11.8c0-6.5,5.3-11.8,11.8-11.8s11.8,5.3,11.8,11.8
		C605.2,315.1,599.9,320.4,593.4,320.4"/>
	<path d="M636.8,328.3c10.9,0,19.7-8.8,19.7-19.7v-15.8c0-2.2-1.7-3.9-3.9-3.9c-2.2,0-3.9,1.7-3.9,3.9v15.8
		c0,6.5-5.3,11.8-11.8,11.8c-6.5,0-11.8-5.3-11.8-11.8v-15.8c0-2.2-1.7-3.9-3.9-3.9c-2.2,0-3.9,1.7-3.9,3.9v15.8
		C617.1,319.5,626,328.3,636.8,328.3"/>
	<path d="M679.6,288.8c-10.6,0.2-19.1,9.6-19.1,20.1V340c0,2.2,1.7,3.9,3.9,3.9c2.2,0,3.9-1.7,3.9-3.9v-15.8c3.8,3,8.8,4.4,14.1,3.8
		c8.9-1,16.2-8,17.3-17C701.4,298.9,691.6,288.5,679.6,288.8 M680.3,320.4c-6.5,0-11.8-5.3-11.8-11.8c0-6.5,5.3-11.8,11.8-11.8
		c6.5,0,11.8,5.3,11.8,11.8C692.1,315.1,686.8,320.4,680.3,320.4"/>
</g>
</svg>
