<svg width="452" height="233" viewBox="0 0 452 233" fill="none" xmlns="http://www.w3.org/2000/svg">
<path d="M65.2 189.4C54.2667 189.4 44.7333 187.267 36.6 183C28.4667 178.6 22.1333 172.533 17.6 164.8C13.0667 156.933 10.8 147.8 10.8 137.4V47.4H32.2V137.4C32.2 144.2 33.5333 150.133 36.2 155.2C39 160.267 42.8667 164.2 47.8 167C52.7333 169.8 58.5333 171.2 65.2 171.2C71.8667 171.2 77.6 169.8 82.4 167C87.3333 164.2 91.1333 160.267 93.8 155.2C96.6 150.133 98 144.2 98 137.4V47.4H119.4V137.4C119.4 147.8 117.133 156.933 112.6 164.8C108.067 172.533 101.733 178.6 93.6 183C85.6 187.267 76.1333 189.4 65.2 189.4ZM143.478 187V47.4H169.878L228.078 159.4L226.478 116.2V47.4H246.878V187H220.678L162.078 76.2L163.878 118V187H143.478Z" fill="white"/>
<path d="M377.076 56.4196L412.088 117.063L377.075 177.706L307.05 177.706L272.038 117.063L307.051 56.4195L377.076 56.4196Z" stroke="white" stroke-width="17"/>
<circle cx="342" cy="117" r="11" fill="white"/>
</svg>
