<?xml version="1.0" standalone="no"?>
<!DOCTYPE svg PUBLIC "-//W3C//DTD SVG 20010904//EN"
 "http://www.w3.org/TR/2001/REC-SVG-20010904/DTD/svg10.dtd">
<svg version="1.0" xmlns="http://www.w3.org/2000/svg"
 width="3334.000000pt" height="3334.000000pt" viewBox="0 0 3334.000000 3334.000000"
 preserveAspectRatio="xMidYMid meet">
<metadata>
Created by potrace 1.14, written by Peter Selinger 2001-2017
</metadata>
<g transform="translate(0.000000,3334.000000) scale(0.100000,-0.100000)"
fill="#000000" stroke="none">
<path d="M4083 25360 c-86 -19 -154 -104 -155 -195 -1 -22 21 -116 47 -210 26
-93 51 -183 56 -200 4 -16 17 -61 27 -100 19 -67 73 -262 93 -335 5 -19 12
-44 14 -54 2 -11 11 -40 19 -65 18 -60 55 -191 61 -216 5 -24 58 -215 84 -305
31 -105 103 -363 106 -380 4 -19 92 -335 104 -375 9 -28 90 -319 95 -340 1 -5
10 -37 20 -70 10 -33 20 -68 22 -78 2 -10 25 -98 53 -195 27 -97 68 -244 91
-327 23 -82 50 -179 60 -215 35 -123 189 -678 321 -1155 38 -137 76 -274 84
-302 46 -162 106 -374 109 -388 1 -5 5 -16 9 -22 5 -7 6 -13 3 -13 -2 0 0 -15
5 -32 10 -34 118 -421 125 -448 2 -8 26 -96 54 -195 68 -241 121 -433 181
-650 45 -160 135 -484 174 -620 37 -133 197 -712 200 -725 3 -15 48 -174 84
-300 17 -58 197 -703 207 -740 2 -8 10 -40 18 -70 7 -30 32 -118 54 -195 65
-227 93 -329 97 -346 2 -9 13 -49 25 -90 13 -41 29 -99 36 -129 19 -73 20 -78
73 -265 11 -38 45 -160 76 -270 31 -110 58 -207 60 -215 2 -8 8 -31 13 -50 5
-19 35 -127 67 -240 85 -305 128 -458 174 -630 24 -85 46 -166 51 -180 4 -14
13 -43 19 -65 17 -62 114 -411 166 -600 26 -93 65 -233 86 -310 22 -77 44
-156 49 -175 32 -116 44 -160 56 -200 7 -25 20 -70 28 -100 17 -64 199 -721
220 -795 27 -92 65 -228 126 -450 33 -121 68 -249 79 -285 28 -96 45 -158 91
-325 23 -82 48 -172 56 -200 8 -27 41 -149 75 -270 33 -121 67 -242 75 -270 7
-27 27 -99 44 -160 72 -258 86 -309 129 -465 24 -91 67 -242 92 -330 10 -36
35 -123 55 -195 20 -71 43 -142 50 -157 20 -38 80 -84 128 -97 30 -9 861 -11
3161 -9 2949 3 3122 4 3152 20 74 41 92 72 153 263 17 55 89 280 160 500 71
220 149 465 175 545 25 80 66 206 90 280 106 329 138 430 215 670 45 140 85
266 90 280 14 40 144 444 146 455 1 6 9 30 17 55 8 25 54 167 102 315 47 149
94 293 103 320 9 28 16 52 17 55 0 3 15 48 32 100 57 172 195 603 197 614 1 6
13 43 26 81 l23 70 24 -75 c13 -41 46 -142 72 -225 60 -184 182 -565 291 -905
45 -140 99 -309 120 -375 119 -369 153 -474 198 -615 155 -482 190 -591 242
-755 32 -99 95 -295 140 -435 45 -140 85 -266 90 -280 5 -14 41 -126 80 -250
40 -124 80 -250 90 -280 10 -30 37 -113 60 -185 48 -149 64 -175 128 -212 l47
-28 3145 0 c2983 0 3147 1 3177 18 40 22 80 63 98 102 11 25 66 212 80 272 2
10 18 68 35 128 28 95 194 693 205 735 2 8 16 58 31 110 14 52 30 109 34 125
21 82 73 267 91 325 23 76 158 564 165 599 3 13 9 32 15 43 5 10 8 18 5 18 -2
0 3 21 11 48 8 26 16 54 18 62 2 8 30 112 63 230 33 118 99 355 146 525 48
171 93 333 101 360 8 28 37 133 65 235 28 102 58 210 67 240 9 30 17 60 18 65
5 21 97 353 116 414 10 35 21 76 24 92 3 15 10 41 16 56 6 15 12 35 14 43 4
20 39 148 65 240 12 41 28 98 35 125 8 28 23 83 35 124 11 40 34 121 50 180
16 58 47 171 69 251 23 80 43 152 45 160 2 8 10 35 17 60 7 25 13 51 15 58 1
7 9 36 18 65 16 55 68 240 110 392 39 143 139 501 206 740 34 121 67 243 75
270 16 64 250 902 317 1139 28 99 51 184 52 190 2 10 15 58 51 181 43 152 218
783 221 803 3 13 12 44 20 69 9 25 17 53 19 62 4 17 470 1695 536 1927 22 78
42 150 44 160 2 10 27 100 55 199 60 213 178 635 191 685 5 19 12 42 14 50 2
8 11 42 20 75 9 33 36 130 60 215 24 85 51 180 59 210 16 61 62 226 186 670
102 367 118 422 135 485 20 76 103 373 120 430 8 28 44 158 81 290 116 422
201 727 233 840 35 124 103 370 127 460 9 33 20 71 24 85 4 14 13 43 19 65 6
22 30 105 52 185 51 180 54 237 16 303 -18 30 -44 56 -75 74 l-47 28 -3118 1
c-1714 1 -3134 -2 -3154 -6 -43 -10 -77 -34 -114 -81 -23 -27 -48 -107 -129
-399 -56 -201 -124 -446 -151 -545 -28 -99 -59 -214 -70 -255 -11 -41 -24 -86
-29 -100 -5 -14 -20 -68 -34 -120 -44 -161 -235 -852 -251 -905 -18 -62 -165
-589 -175 -630 -4 -16 -15 -55 -24 -86 -9 -31 -19 -65 -21 -75 -2 -11 -22 -82
-44 -159 -41 -148 -170 -610 -176 -635 -4 -15 -49 -175 -86 -305 -11 -38 -21
-78 -24 -87 -3 -16 -59 -213 -90 -323 -8 -27 -59 -212 -114 -410 -55 -198
-114 -409 -131 -470 -40 -141 -37 -131 -54 -195 -8 -30 -35 -128 -60 -217 -25
-90 -46 -170 -46 -180 0 -33 -14 0 -56 130 -24 72 -44 132 -44 132 -1 0 -3 7
-5 15 -2 8 -10 35 -18 60 -8 25 -45 140 -82 255 -36 116 -75 235 -85 265 -10
30 -50 156 -90 280 -39 124 -77 243 -85 265 -7 22 -46 141 -85 265 -40 124
-91 286 -115 360 -63 195 -132 409 -225 700 -45 140 -92 287 -105 325 -13 39
-52 162 -88 275 -37 113 -80 250 -98 305 -40 124 -66 165 -128 199 l-49 26
-3128 0 c-2239 0 -3140 -3 -3169 -11 -25 -7 -55 -27 -80 -54 -35 -37 -47 -64
-99 -226 -33 -101 -74 -229 -92 -284 -17 -55 -64 -201 -104 -325 -74 -232
-126 -395 -180 -560 -17 -52 -33 -102 -35 -110 -2 -8 -14 -49 -28 -90 -28 -85
-145 -449 -237 -740 -35 -107 -74 -226 -87 -265 -14 -38 -26 -77 -28 -86 -3
-17 -151 -480 -162 -509 -3 -8 -7 -19 -9 -25 -11 -44 -178 -553 -185 -565 -7
-12 -8 -11 -9 5 0 11 -21 92 -46 180 -25 88 -51 183 -59 210 -8 28 -35 124
-60 215 -25 91 -48 174 -50 184 -2 10 -9 33 -14 50 -6 17 -17 56 -25 86 -7 30
-71 260 -141 510 -70 250 -128 462 -130 470 -4 17 -138 499 -160 575 -8 28
-40 140 -70 250 -31 110 -71 256 -91 325 -42 149 -39 138 -49 175 -10 40 -92
334 -115 415 -10 36 -35 124 -54 195 -20 72 -45 162 -56 200 -10 39 -38 138
-61 220 -22 83 -54 195 -70 250 -15 55 -58 208 -94 340 -37 132 -78 281 -92
330 -13 50 -26 97 -28 105 -3 8 -13 47 -24 85 -11 39 -33 117 -49 175 -152
552 -151 551 -230 597 l-47 28 -3120 1 c-1716 0 -3135 -3 -3152 -6z"/>
</g>
</svg>
