<?xml version="1.0" encoding="utf-8"?>
<svg version="1.1" id="Layer_1" x="0px" y="0px" viewBox="0 0 512 512" style="enable-background:new 0 0 512 512;" xmlns="http://www.w3.org/2000/svg">
  <path style="stroke-miterlimit: 7; fill: rgb(241, 60, 82);" d="M61.184,328.124l3.063-15.309c42.47-212.361,130.167-256.939,196.258-256.939l0,0 c48.307,0,101.222,23.697,157.286,70.417l34.671,28.894l-44.672-6.391c-14.857-2.125-27.708-3.2-38.212-3.2 c-20.267,0-29.329,4.011-31.078,7.765c-7.04,15.121,34.022,63.957,61.201,96.273c16.811,19.994,34.202,40.67,46.148,58.59 l13.269,19.9H61.184z"/>
  <g>
    <path style="fill:#E9EBEF;" d="M460.8,200.124c-21.171,0-38.4-17.229-38.4-38.4s17.229-38.4,38.4-38.4 c21.171,0,38.4,17.229,38.4,38.4S481.971,200.124,460.8,200.124z"/>
    <path style="fill:#E9EBEF;" d="M76.8,456.124c-35.294,0-64-28.706-64-64s28.706-64,64-64h358.4c35.294,0,64,28.706,64,64 s-28.706,64-64,64H76.8z"/>
  </g>
  <path style="fill:#573A32;" d="M76.8,468.924h358.4c42.419,0,76.8-34.381,76.8-76.8c0-30.575-17.997-56.747-43.861-69.111 c-3.191-7.398-6.869-14.737-11.639-21.888c-12.339-18.509-29.961-39.467-46.993-59.725c-19.2-22.827-53.76-63.923-58.308-81.186 c3.046-0.836,8.687-1.818,18.321-1.818c9.924,0,22.187,1.033,36.463,3.072c1.212,0.171,2.423,0.256,3.618,0.256 c0,28.279,22.921,51.2,51.2,51.2c28.279,0,51.2-22.921,51.2-51.2s-22.921-51.2-51.2-51.2c-11.622,0-22.221,4.019-30.822,10.556 c-1.203-1.63-2.381-3.285-3.994-4.617c-58.419-48.691-114.099-73.387-165.461-73.387c-70.878,0-164.651,46.353-208.819,267.23 c-0.666,3.337-0.768,6.622-1.178,9.933C21.111,331,0,358.98,0,392.124C0,434.543,34.381,468.924,76.8,468.924z M460.8,136.124 c14.114,0,25.6,11.486,25.6,25.6c0,14.114-11.486,25.6-25.6,25.6s-25.6-11.486-25.6-25.6 C435.2,147.61,446.686,136.124,460.8,136.124z M260.514,68.676c45.141,0,95.565,22.844,149.086,67.447 c-15.881-2.27-29.124-3.328-40.081-3.328c-112.674,0.017,19.021,112.538,65.681,182.528H76.8 C110.157,148.531,176.111,68.668,260.514,68.676z M76.8,340.924h358.4c28.228,0,51.2,22.963,51.2,51.2 c0,28.228-22.972,51.2-51.2,51.2H76.8c-28.228,0-51.2-22.972-51.2-51.2C25.6,363.896,48.572,340.924,76.8,340.924z"/>
  <g/>
  <g/>
  <g/>
  <g/>
  <g/>
  <g/>
  <g/>
  <g/>
  <g/>
  <g/>
  <g/>
  <g/>
  <g/>
  <g/>
  <g/>
</svg>