<?xml version="1.0" encoding="utf-8"?>
<!-- Generator: Adobe Illustrator 16.0.0, SVG Export Plug-In . SVG Version: 6.00 Build 0)  -->
<!DOCTYPE svg PUBLIC "-//W3C//DTD SVG 1.1//EN" "http://www.w3.org/Graphics/SVG/1.1/DTD/svg11.dtd">
<svg version="1.1" id="skull" xmlns="http://www.w3.org/2000/svg" xmlns:xlink="http://www.w3.org/1999/xlink" x="0px" y="0px"
	 width="64px" height="64px" viewBox="0 0 64 64" enable-background="new 0 0 64 64" xml:space="preserve">
<path fill="#FFFFFF" d="M32.267,9c-12,0-18.725,8-17.225,20c-1.401,3.003,0.225,8,3.225,10l4.998,13.5c1.002,2.5,3.547,3,6.002,3h3
	h3c2.454,0,5-0.5,6.001-3L46.267,39c3-2,4.626-6.997,3.225-10C50.991,17,44.267,9,32.267,9z"/>
<path fill="#E0E0E0" d="M49.491,29c1.5-12-5.225-20-17.225-20c-1.41,0-2.74,0.12-4,0.334c8.336,1.419,13.271,7.387,13.422,16.031
	c2.256,0.314,4.569,1.212,4.578,3.796c0.016,4.318-1.891,7.008-4.974,7.02l-0.442,0.001c-0.034,0-0.072,0-0.107,0
	c-0.634,1.148-1.477,2.151-2.477,2.818l-2.093,5.653c0,0,2.368,0.139,4.118-0.236c0,0.208,0.042,4.291,0,5.833
	c-1.375,0.792-6.568,1.02-6.568,1.02l-0.456,1.23c-0.865,2.16-2.885,2.824-5.001,2.966c0.332,0.022,0.667,0.034,1,0.034h3h3
	c2.454,0,5-0.5,6.001-3L46.267,39C49.267,37,50.893,32.003,49.491,29z"/>
<path fill="#333C4C" d="M35.271,30.203c0.02,5,2.98,4.989,6.018,4.978s3.987-3.254,3.978-6.016s-3.975-2.985-7.012-2.973
	C35.217,26.204,35.259,27.442,35.271,30.203z"/>
<path fill="#242A38" d="M38.255,26.192c-0.493,0.002-0.897,0.04-1.241,0.107c2.246,0.226,4.246,0.905,4.253,2.865
	c0.009,2.39-0.705,5.136-2.865,5.841c0.886,0.179,1.881,0.179,2.888,0.175c3.037-0.012,3.987-3.254,3.978-6.016
	S41.292,26.18,38.255,26.192z"/>
<path fill="#272223" d="M40.851,36.182c-2.452,0-6.556,0-6.579-5.975c-0.008-1.602-0.013-2.69,0.496-3.565
	c0.741-1.275,2.251-1.444,3.483-1.449h0.225c2.327,0,7.777,0,7.791,3.969c0.016,4.318-1.891,7.008-4.974,7.02L40.851,36.182z
	 M38.476,27.192h-0.217c-1.501,0.006-1.697,0.343-1.762,0.454c-0.235,0.405-0.231,1.355-0.226,2.455
	c0.015,3.888,1.75,4.08,4.579,4.08l0.435-0.001c2.783-0.011,2.985-3.839,2.981-5.012C44.262,27.82,42.422,27.192,38.476,27.192z"/>
<path fill="#333C4C" d="M29.265,30.203c-0.02,5-2.98,4.989-6.018,4.978s-3.987-3.254-3.978-6.016s3.975-2.985,7.012-2.973
	C29.319,26.204,29.277,27.442,29.265,30.203z"/>
<path fill="#242A38" d="M26.281,26.192c-0.882-0.004-1.84,0.015-2.759,0.107c1.776,0.35,1.753,1.591,1.742,3.903
	c-0.013,3.343-1.344,4.441-3.13,4.803c0.336,0.109,0.703,0.173,1.112,0.175c3.037,0.012,5.998,0.022,6.018-4.978
	C29.277,27.442,29.319,26.204,26.281,26.192z"/>
<path fill="#272223" d="M23.686,36.182l-0.442-0.001c-3.083-0.012-4.989-2.701-4.974-7.02c0.014-3.969,5.464-3.969,7.791-3.969
	h0.225c1.232,0.005,2.742,0.174,3.483,1.449c0.509,0.875,0.504,1.964,0.496,3.47C30.241,36.182,26.138,36.182,23.686,36.182z
	 M26.061,27.192c-3.946,0-5.786,0.628-5.791,1.977c-0.004,1.173,0.198,5.001,2.981,5.012l0.435,0.001
	c2.829,0,4.564-0.192,4.579-3.982c0.006-1.197,0.01-2.147-0.226-2.553c-0.064-0.111-0.261-0.448-1.762-0.454H26.061z"/>
<path fill="#333C4C" d="M35.267,41c0-1.656-1.343-5-3-5s-3,3.344-3,5c0,0,2-1,3-1S35.267,41,35.267,41z"/>
<path fill="#242A38" d="M33.178,40.163C34.157,40.446,35.267,41,35.267,41c0-1.656-1.343-5-3-5c-0.352,0-0.687,0.156-1,0.409
	C32.211,37.171,32.937,38.854,33.178,40.163z"/>
<path fill="#272223" d="M29.267,42c-0.183,0-0.365-0.05-0.525-0.149c-0.295-0.183-0.475-0.504-0.475-0.851c0-2.061,1.558-6,4-6
	s4,3.939,4,6c0,0.347-0.18,0.668-0.474,0.851c-0.296,0.182-0.663,0.198-0.974,0.044C34.097,41.534,32.785,41,32.267,41
	c-0.521,0-1.831,0.534-2.553,0.895C29.572,41.965,29.42,42,29.267,42z M32.267,39c0.485,0,1.094,0.156,1.667,0.354
	C33.511,38.148,32.772,37,32.267,37s-1.244,1.148-1.667,2.354C31.173,39.156,31.781,39,32.267,39z"/>
<path fill="#272223" d="M50.517,28.852c0.715-6.181-0.655-11.425-3.97-15.18c-3.155-3.573-7.861-5.505-13.622-5.645
	c-0.074-0.012-0.146-0.014-0.22-0.009C32.557,8.016,32.416,8,32.267,8c-6.066,0-11.005,1.961-14.28,5.672
	c-3.314,3.755-4.685,8.999-3.97,15.18c-1.342,3.335,0.29,8.477,3.42,10.787l2.453,6.625l-0.01,0.014l0.02,0.013l2.437,6.582
	C23.79,56.5,27.912,56.5,29.267,56.5h6c1.354,0,5.477,0,6.938-3.652l2.428-6.557l0.021-0.014l-0.01-0.015l2.453-6.624
	C50.227,37.327,51.857,32.187,50.517,28.852z M22.589,47.795c0.227,0.092,0.448,0.195,0.681,0.273l0.002,1.569L22.589,47.795z
	 M40.339,52.128c-0.656,1.641-2.221,2.372-5.072,2.372h-6c-2.852,0-4.416-0.731-5.064-2.348l-0.492-1.329
	c0.059,0.04,0.116,0.082,0.184,0.109C26.507,52,29.435,52,32.267,52c2.834,0,5.764,0,8.38-1.069
	c0.064-0.026,0.118-0.067,0.175-0.105L40.339,52.128z M25.269,46.549l-0.001-0.844c0.649,0.086,1.316,0.148,1.999,0.191v0.941
	C26.581,46.771,25.909,46.686,25.269,46.549z M27.267,48.845v0.917c-0.688-0.102-1.356-0.242-1.996-0.452l-0.001-0.74
	C25.924,48.691,26.59,48.783,27.267,48.845z M31.267,48.997v1.001c-0.68-0.004-1.346-0.017-2-0.048v-0.982
	C29.932,48.988,30.6,48.995,31.267,48.997z M29.267,46.968v-0.993c0.658,0.015,1.325,0.021,2,0.023v1
	C30.591,46.995,29.922,46.989,29.267,46.968z M35.267,48.967v0.983c-0.654,0.032-1.32,0.044-2,0.048v-1.001
	C33.934,48.995,34.602,48.988,35.267,48.967z M33.267,46.997v-0.999c0.675-0.002,1.342-0.009,2-0.023v0.992
	C34.611,46.987,33.942,46.995,33.267,46.997z M39.288,48.563c0.006,0.271,0.014,0.517,0.024,0.73
	c-0.655,0.219-1.341,0.364-2.046,0.469v-0.92C37.952,48.779,38.626,48.688,39.288,48.563z M37.267,46.836v-0.939
	c0.683-0.043,1.35-0.105,1.999-0.191c0,0.296,0.001,0.576,0.002,0.84C38.626,46.682,37.953,46.77,37.267,46.836z M41.268,49.621
	c-0.001-0.354-0.001-0.921-0.001-1.556c0.231-0.078,0.452-0.181,0.678-0.271L41.268,49.621z M45.712,38.168
	c-0.176,0.117-0.31,0.287-0.383,0.484l-1.198,3.236l-0.419,0.279C40.964,44,36.739,44,32.267,44s-8.697,0-11.445-1.832l-0.419-0.279
	l-1.198-3.236c-0.073-0.197-0.207-0.367-0.383-0.484c-2.578-1.719-4.055-6.214-2.874-8.745c0.08-0.171,0.109-0.36,0.086-0.547
	c-0.714-5.714,0.479-10.514,3.452-13.88c2.681-3.035,6.695-4.722,11.64-4.95l-1.253,2.507c-0.16,0.321-0.137,0.704,0.063,1.002
	l1.729,2.593l-0.845,2.536c-0.175,0.524,0.108,1.091,0.632,1.265C31.556,19.983,31.662,20,31.767,20
	c0.419,0,0.809-0.265,0.948-0.684l1-3c0.098-0.293,0.055-0.614-0.116-0.871l-1.333-2l2.018-3.363
	c4.548,0.377,8.242,2.057,10.764,4.913c2.973,3.367,4.166,8.167,3.452,13.88c-0.023,0.187,0.007,0.376,0.086,0.547
	C49.767,31.954,48.29,36.449,45.712,38.168z"/>
</svg>
