<svg width="509" height="535" viewBox="0 0 509 535" fill="none" xmlns="http://www.w3.org/2000/svg">
<path d="M247.547 3.7263C251.424 -0.0240407 257.576 -0.0240476 261.453 3.72629L317.858 58.2926C320.075 60.4372 323.157 61.4387 326.211 61.0068L403.917 50.0157C409.258 49.2603 414.235 52.8767 415.167 58.1894L428.727 135.488C429.26 138.527 431.165 141.149 433.889 142.594L503.215 179.377C507.98 181.905 509.881 187.756 507.512 192.602L473.047 263.108C471.692 265.879 471.692 269.121 473.047 271.892L507.512 342.398C509.881 347.244 507.98 353.095 503.215 355.623L433.889 392.406C431.165 393.851 429.26 396.473 428.727 399.512L415.167 476.811C414.235 482.123 409.258 485.74 403.917 484.984L326.211 473.993C323.157 473.561 320.075 474.563 317.858 476.707L261.453 531.274C257.576 535.024 251.424 535.024 247.547 531.274L191.142 476.707C188.925 474.563 185.843 473.561 182.789 473.993L105.083 484.984C99.742 485.74 94.7646 482.123 93.8326 476.811L80.2733 399.511C79.7404 396.473 77.8353 393.851 75.1106 392.406L5.7849 355.623C1.02014 353.095 -0.881083 347.244 1.48773 342.398L35.9532 271.892C37.3078 269.121 37.3078 265.879 35.9532 263.108L1.48774 192.602C-0.881079 187.756 1.02013 181.905 5.78489 179.377L75.1106 142.594C77.8353 141.149 79.7404 138.527 80.2733 135.488L93.8326 58.1894C94.7646 52.8767 99.742 49.2603 105.083 50.0157L182.789 61.0068C185.843 61.4387 188.925 60.4372 191.142 58.2926L247.547 3.7263Z" fill="#171717"/>
</svg>
