                      <svg
                        width="338"
                        height="82"
                        viewBox="0 0 338 82"
                        fill="none"
                        xmlns="http://www.w3.org/2000/svg"
                        className="h-12 w-auto"
                      >
                        <g>
                          <path
                            d="M127.157 29.4078L118.49 24.5068C114.156 22.0549 111.139 18.7886 111.139 15.2975C111.139 11.4357 114.311 8.24236 118.49 8.24236C125.609 8.24236 130.791 14.6291 134.118 23.5406H136.438V3.78809H117.094C104.644 3.78809 100 12.329 100 19.0104C100 28.4416 107.195 32.674 118.803 39.954C124.529 43.518 128.166 46.7873 128.166 51.3905C128.166 55.4012 124.453 59.4848 119.81 59.4848C114.317 59.4848 107.043 53.5447 102.555 41.2149H100.231V63.939H120.579C133.114 63.939 139.844 54.4319 139.844 46.7843C139.844 39.6532 136.362 34.6034 127.154 29.4047L127.157 29.4078Z"
                            fill="white"
                          ></path>
                          <path
                            d="M180.547 56.888V32.8999C180.547 22.5026 173.814 19.7559 164.067 19.7559H146.812L146.888 36.6888H149.519C152.536 29.4848 156.328 24.2132 161.668 24.2132C165.691 24.2132 167.55 27.5554 167.55 31.0465V34.3128C161.051 38.0257 143.641 41.1461 143.641 52.4337C143.641 58.9693 148.36 64.6146 155.245 64.6146C161.203 64.6146 165.381 60.6799 167.47 56.2955C167.857 59.9355 170.256 63.9462 175.903 63.9462H184.801V60.6799C181.94 60.6799 180.547 58.8234 180.547 56.891V56.888ZM167.315 53.1751C166.078 54.8827 164.064 56.8151 161.744 56.8151C158.493 56.8151 156.404 54.439 156.404 49.684C156.404 44.2635 164.064 40.7724 167.312 38.1715V53.172L167.315 53.1751Z"
                            fill="white"
                          ></path>
                          <path
                            d="M248.556 15.1494C253.507 15.1494 256.603 11.8072 256.603 7.49874C256.603 3.19031 253.507 0 248.556 0C243.605 0 240.433 3.19335 240.433 7.50178C240.433 11.8102 243.76 15.1524 248.556 15.1524V15.1494Z"
                            fill="white"
                          ></path>
                          <path
                            d="M231.07 56.8876V31.4897C231.07 23.5444 227.122 18.8652 219.31 18.8652C212.811 18.8652 208.709 23.0248 205.616 27.4061V19.7555H187.434V23.0217C190.685 23.0217 191.998 25.1 191.998 26.8835V56.8876C191.998 58.82 190.605 60.6765 187.744 60.6765V63.9427H209.719V60.6765C206.933 60.6765 205.54 58.5982 205.54 56.8876L205.616 31.4897C207.474 29.1137 209.408 27.0324 212.656 27.0324C215.904 27.0324 217.531 29.4844 217.531 32.5289V56.8876C217.531 58.82 216.138 60.6765 213.277 60.6765V63.9427H235.251V60.6765C232.466 60.6765 231.073 58.5982 231.073 56.8876H231.07Z"
                            fill="white"
                          ></path>
                          <path
                            d="M323.688 19.756V23.0223C328.563 23.0223 329.956 25.4743 327.556 32.0828L321.754 47.1593L314.324 28.8165C312.621 25.2525 313.552 23.0223 317.11 23.0223V19.756H281.131V4.90137H277.728C276.722 9.95117 271.074 19.756 261.711 19.756V23.0223H267.748V53.5459C267.748 58.6717 269.527 64.6118 279.897 64.6118H295.914L295.99 47.6788H293.359C292.198 51.6135 289.567 59.486 284.385 59.486C281.524 59.486 281.134 56.4415 281.134 53.9896V24.4321H295.531C297.149 24.4929 298.712 24.8605 299.548 26.7352L315.255 64.0162C312.238 70.6247 307.053 71.6669 297.769 68.9172V81.9883C302.489 81.9883 306.822 82.0612 307.905 81.7665C314.017 80.0589 317.73 68.5465 319.434 64.0922L332.741 29.5579C334.21 25.769 335.451 23.0223 338.002 23.0223V19.756H323.688Z"
                            fill="white"
                          ></path>
                          <path
                            d="M256.45 56.888V19.7559H238.809V23.0221C241.825 23.0221 243.142 24.8057 243.142 26.8839V56.888C242.987 58.8933 241.594 60.6769 238.809 60.6769V63.9431H261.094V60.6769C258.928 60.6769 256.605 58.8204 256.45 56.888Z"
                            fill="white"
                          ></path>
                        </g>
                        <g>
                          <path
                            d="M77.7572 44.3133L74.7776 39.3112L60.374 47.7838L76.371 28.1129L78.7887 26.7426L78.2517 25.8042L79.2907 24.5233L75.9989 21.877L75.5743 21.1372L75.2821 21.301L74.2406 20.4669L72.0927 23.1083L25.3405 49.6009L42.5388 29.6321L74.6577 12.6348L71.6056 6.93759L54.1126 16.1946L62.7242 6.19782L57.789 2L38.4028 24.5084L19.1465 34.7013L33.8897 15.8843L43.1257 11.2446L40.1936 5.48536L13.2771 19.0122L20.62 9.63601L15.495 5.67154L0 25.4666L0.242265 25.6528L3.13696 31.3425L20.3103 22.7111L4.65799 42.6873L7.21801 44.6708L8.74403 47.5182L26.8315 37.9459L6.9183 61.0674L11.851 65.2652L12.8426 64.1133L60.881 36.8908L44.9315 56.5022L45.1912 56.7107L45.1662 56.7281L48.473 62.2813L69.685 49.8045L61.5204 62.5295L66.9951 66L80 45.7358L77.7572 44.3133Z"
                            fill="white"
                          ></path>
                        </g>
                        <defs>
                          <clipPath id="clip0_245_3475">
                            <rect
                              width="238"
                              height="82"
                              fill="white"
                              transform="translate(100)"
                            ></rect>
                          </clipPath>
                          <clipPath id="clip1_245_3475">
                            <rect
                              width="80"
                              height="64"
                              fill="white"
                              transform="translate(0 2)"
                            ></rect>
                          </clipPath>
                        </defs>
                      </svg>